<?xml version="1.0" encoding="utf-8"?>
<!-- Generator: Adobe Illustrator 26.2.1, SVG Export Plug-In . SVG Version: 6.00 Build 0)  -->
<svg version="1.1" id="Layer_1" xmlns="http://www.w3.org/2000/svg" xmlns:xlink="http://www.w3.org/1999/xlink" x="0px" y="0px"
	 viewBox="0 0 829.2 501.9" style="enable-background:new 0 0 829.2 501.9;" xml:space="preserve">
<style type="text/css">
	.st0{fill:none;}
	.st1{font-family:'ArialMT';}
	.st2{font-size:8.7538px;}
	.st3{font-size:9.6px;}
	.st4{font-size:14.4px;}
	.st5{font-size:12px;}
	.st6{clip-path:url(#SVGID_00000106833955705249193000000003275937030388170416_);}
	.st7{fill:#4898C7;stroke:#FFFFFF;stroke-width:0.75;stroke-linecap:round;stroke-linejoin:round;stroke-miterlimit:10;}
	.st8{fill:#B0874F;stroke:#FFFFFF;stroke-width:0.75;stroke-linecap:round;stroke-linejoin:round;stroke-miterlimit:10;}
	.st9{fill:#8A927B;stroke:#FFFFFF;stroke-width:0.75;stroke-linecap:round;stroke-linejoin:round;stroke-miterlimit:10;}
	.st10{fill:#D3D3D3;stroke:#FFFFFF;stroke-width:0.75;stroke-linecap:round;stroke-linejoin:round;stroke-miterlimit:10;}
	.st11{font-family:'Symbol';}
	.st12{font-size:33.1764px;}
	.st13{fill:none;stroke:#A6A6A6;stroke-width:0.75;stroke-linecap:round;stroke-linejoin:round;stroke-miterlimit:10;}
	.st14{fill:#4898C7;stroke:#4898C7;stroke-width:0.75;stroke-linecap:round;stroke-linejoin:round;stroke-miterlimit:10;}
	.st15{fill:#B0874F;stroke:#B0874F;stroke-width:0.75;stroke-linecap:round;stroke-linejoin:round;stroke-miterlimit:10;}
	.st16{fill:#8A927B;stroke:#8A927B;stroke-width:0.75;stroke-linecap:round;stroke-linejoin:round;stroke-miterlimit:10;}
	.st17{fill:#D3D3D3;stroke:#D3D3D3;stroke-width:0.75;stroke-linecap:round;stroke-linejoin:round;stroke-miterlimit:10;}
	.st18{display:none;}
	.st19{display:inline;fill:none;}
	
		.st20{display:inline;fill:none;stroke:#A6A6A6;stroke-width:0.75;stroke-linecap:round;stroke-linejoin:round;stroke-miterlimit:10;}
	
		.st21{display:inline;fill:#4898C7;stroke:#4898C7;stroke-width:0.75;stroke-linecap:round;stroke-linejoin:round;stroke-miterlimit:10;}
	
		.st22{display:inline;fill:#B0874F;stroke:#B0874F;stroke-width:0.75;stroke-linecap:round;stroke-linejoin:round;stroke-miterlimit:10;}
	
		.st23{display:inline;fill:#8A927B;stroke:#8A927B;stroke-width:0.75;stroke-linecap:round;stroke-linejoin:round;stroke-miterlimit:10;}
	
		.st24{display:inline;fill:#D3D3D3;stroke:#D3D3D3;stroke-width:0.75;stroke-linecap:round;stroke-linejoin:round;stroke-miterlimit:10;}
</style>
<g id="Layer_1_00000085227496720299548330000016005620682366471842_">
	<rect x="-53" class="st0" width="576" height="576"/>
	<g>
		<text transform="matrix(1.0507 0 0 1 268.2505 185.2334)" class="st1 st2">1%</text>
		<text transform="matrix(1 0 0 1 305.9905 188.3602)" class="st1 st3">0%</text>
		<line class="st0" x1="61.2" y1="314.6" x2="55.5" y2="314.6"/>
		<line class="st0" x1="335.7" y1="314.6" x2="341.3" y2="314.6"/>
		<rect x="-53" y="1" class="st0" width="576" height="576"/>
		<rect x="13.7" y="103" class="st0" width="17.8" height="243.9"/>
		<text transform="matrix(6.123234e-17 -1 1 6.123234e-17 26.0695 338.2617)" class="st1 st4">Variance explained in log(Estradiol)</text>
		<text transform="matrix(1 0 0 1 75.2314 90.25)" class="st1 st3">47%</text>
		<text transform="matrix(1 0 0 1 113.9904 178.0001)" class="st1 st3">5%</text>
		<text transform="matrix(1 0 0 1 153.2904 182.2489)" class="st1 st3">3%</text>
		<text transform="matrix(1 0 0 1 190.9902 182.4979)" class="st1 st3">3%</text>
		<text transform="matrix(1 0 0 1 228.9904 183.7099)" class="st1 st3">2%</text>
		<line class="st0" x1="61.2" y1="437.6" x2="55.5" y2="437.6"/>
		<line class="st0" x1="61.2" y1="68.5" x2="55.5" y2="68.5"/>
		<text transform="matrix(0.342 -0.9397 0.9397 0.342 69.3304 351.5098)" class="st1 st5">BioCycle</text>
		<text transform="matrix(0.342 -0.9397 0.9397 0.342 111.4637 444.0078)" class="st1 st5">Roney &apos;13</text>
		<text transform="matrix(0.342 -0.9397 0.9397 0.342 149.8614 445.4971)" class="st1 st5">Blake &apos;17</text>
		<text transform="matrix(0.342 -0.9397 0.9397 0.342 171.4049 486.0791)" class="st1 st5">Marcinkowska &apos;20</text>
		<text transform="matrix(0.342 -0.9397 0.9397 0.342 261.8878 453.9688)" class="st1 st5">Jünger &apos;18</text>
		<polygon class="st0" points="249.3,462.4 270.7,398.9 287.2,405.4 265.8,468.9 		"/>
		<text transform="matrix(0.342 -0.9397 0.9397 0.342 226.1055 447.4932)" class="st1 st5">OCMATE</text>
		<text transform="matrix(0.342 -0.9397 0.9397 0.342 302.7274 447.4932)" class="st1 st5">Stern &apos;21</text>
		<line class="st0" x1="335.7" y1="437.6" x2="341.3" y2="437.6"/>
		<line class="st0" x1="335.7" y1="191.5" x2="341.3" y2="191.5"/>
		<line class="st0" x1="335.7" y1="68.5" x2="341.3" y2="68.5"/>
		<rect x="47.4" y="60.6" class="st0" width="75.9" height="17.8"/>
		<text transform="matrix(1 0 0 1 50.1196 72.9903)" class="st1 st4">Serum CIA</text>
		<rect x="125.9" y="144.5" class="st0" width="192" height="15.1"/>
		<text transform="matrix(1 0 0 1 125.8519 156.8826)" class="st1 st4">Salivary immunoassays (CIA)</text>
		<text transform="matrix(1 0 0 1 39.1258 92.2499)" class="st1 st3">50</text>
		<rect x="365.2" y="75" class="st0" width="17.8" height="278.8"/>
		<text transform="matrix(6.123234e-17 -1 1 6.123234e-17 377.5234 342.8896)" class="st1 st4">Variance explained in log(Progesterone)</text>
	</g>
	<g>
		<g>
			<defs>
				<rect id="SVGID_1_" x="302.7" y="-38.3" width="576" height="576"/>
			</defs>
			<clipPath id="SVGID_00000147201307662980464310000016484095460635418042_">
				<use xlink:href="#SVGID_1_"  style="overflow:visible;"/>
			</clipPath>
			<g style="clip-path:url(#SVGID_00000147201307662980464310000016484095460635418042_);">
				<rect x="302.7" y="-38.3" class="st0" width="576" height="576"/>
				<text transform="matrix(1 4.389360e-05 -4.389360e-05 1 429.051 43.5243)" class="st1 st3">70%</text>
				<text transform="matrix(1 0 0 1 468.4081 73.1094)" class="st1 st3">56%</text>
				<text transform="matrix(1 0 0 1 505.3162 90.59)" class="st1 st3">47%</text>
				<text transform="matrix(1 0 0 1 545.0803 133.1352)" class="st1 st3">27%</text>
				<text transform="matrix(1 0 0 1 581.1943 153.7254)" class="st1 st3">16%</text>
				<text transform="matrix(1 0 0 1 620.1943 160.6901)" class="st1 st3">13%</text>
				<text transform="matrix(1 0 0 1 660.5212 174.6198)" class="st1 st3">7%</text>
				<line class="st0" x1="416.9" y1="412.3" x2="411.2" y2="412.3"/>
				<line class="st0" x1="416.9" y1="301.9" x2="411.2" y2="301.9"/>
				<line class="st0" x1="416.9" y1="191.5" x2="411.2" y2="191.5"/>
				<line class="st0" x1="416.9" y1="81.1" x2="411.2" y2="81.1"/>
				<text transform="matrix(0.342 -0.9397 0.9397 0.342 429.0514 303.0303)" class="st1 st5">BioCycle</text>
				<text transform="matrix(0.342 -0.9397 0.9397 0.342 464.9068 343.9239)" class="st1 st5">Jünger &apos;18</text>
				<text transform="matrix(0.342 -0.9397 0.9397 0.342 506.1546 351.8106)" class="st1 st5">Stern &apos;21</text>
				<text transform="matrix(0.342 -0.9397 0.9397 0.342 540.4481 401.3409)" class="st1 st5">Roney &apos;13</text>
				<polygon class="st0" points="568.6,423.9 586.5,369.2 600.4,374.8 582.5,429.5 				"/>
				<text transform="matrix(0.342 -0.9397 0.9397 0.342 578.5433 421.3057)" class="st1 st5">OCMATE</text>
				<text transform="matrix(0.342 -0.9397 0.9397 0.342 602.9874 467.3614)" class="st1 st5">Marcinkowska &apos;20</text>
				<text transform="matrix(0.342 -0.9397 0.9397 0.342 657.3524 439.7803)" class="st1 st5">Blake &apos;17</text>
				<line class="st0" x1="691.4" y1="412.3" x2="697.1" y2="412.3"/>
				<line class="st0" x1="691.4" y1="301.9" x2="697.1" y2="301.9"/>
				<line class="st0" x1="691.4" y1="191.5" x2="697.1" y2="191.5"/>
				<line class="st0" x1="691.4" y1="81.1" x2="697.1" y2="81.1"/>
				<rect x="416.9" y="10.9" class="st0" width="274.5" height="411.7"/>
				<rect x="732.2" y="183.8" class="st0" width="66.7" height="60.7"/>
				<text transform="matrix(1 0 0 1 731.2958 183.7032)" class="st1 st5">cycle phase (BC)</text>
				<text transform="matrix(1 0 0 1 731.7759 199.383)" class="st1 st5">person</text>
				<text transform="matrix(1 0 0 1 732.2458 217.493)" class="st1 st5">cycle to cycle</text>
				<text transform="matrix(1 0 0 1 732.7258 235.4054)" class="st1 st5">residual</text>
				<rect x="715" y="174.4" class="st7" width="13.3" height="11.8"/>
				<rect x="715" y="192" class="st8" width="13.3" height="11.8"/>
				<rect x="715" y="209.4" class="st9" width="13.3" height="11.8"/>
				<rect x="715" y="227.5" class="st10" width="13.3" height="11.8"/>
			</g>
		</g>
	</g>
	<rect x="409" y="15.6" class="st0" width="71.4" height="17.8"/>
	<text transform="matrix(1 0 0 1 409.0082 27.985)" class="st1 st4">Serum IA</text>
	<rect x="516.4" y="25.9" class="st0" width="192" height="15.1"/>
	<text transform="matrix(1 0 0 1 516.3893 38.2174)" class="st1 st4">Salivary assays</text>
	<rect x="464.4" y="46.7" class="st0" width="74.7" height="15.1"/>
	<text transform="matrix(1 0 0 1 464.3994 59.0851)" class="st1 st4">LC-MS/MS</text>
	<rect x="615.9" y="128.5" class="st0" width="36.3" height="15.1"/>
	<text transform="matrix(1 0 0 1 615.8782 140.8263)" class="st1 st4">CIA</text>
	<rect x="541.6" y="107.2" class="st0" width="24" height="15.1"/>
	<text transform="matrix(1 0 0 1 541.6475 119.6058)" class="st1 st4">RIA</text>
	<text transform="matrix(3.267949e-07 0.5187 -1 1.695217e-07 487.1943 31.3083)" class="st11 st12">⎝</text>
	<text transform="matrix(-3.267949e-07 0.5187 1 1.695217e-07 646.6553 31.8041)" class="st11 st12">⎝</text>
	<text transform="matrix(3.267949e-07 0.5187 -1 1.695217e-07 587.5986 134.6422)" class="st11 st12">⎝</text>
	<text transform="matrix(-3.267949e-07 0.5187 1 1.695217e-07 666.2197 134.89)" class="st11 st12">⎝</text>
</g>
<g id="P4">
	<line class="st0" x1="414.6" y1="397.6" x2="408.9" y2="397.6"/>
	<line class="st0" x1="414.6" y1="294.7" x2="408.9" y2="294.7"/>
	<line class="st0" x1="414.6" y1="191.7" x2="408.9" y2="191.7"/>
	<line class="st0" x1="414.6" y1="88.8" x2="408.9" y2="88.8"/>
	<text transform="matrix(1 0 0 1 392.5823 298.1199)" class="st1 st3">50</text>
	<rect x="397.9" y="187" class="st0" width="5.3" height="11.4"/>
	<text transform="matrix(1 0 0 1 397.9214 195.1897)" class="st1 st3">0</text>
	<text transform="matrix(1 0 0 1 387.2432 -10.6901)" class="st1 st3">100</text>
	<line class="st13" x1="414.6" y1="191.7" x2="689.1" y2="191.7"/>
	<rect x="424.8" y="46.9" class="st14" width="25.4" height="144.8"/>
	<rect x="424.8" y="191.7" class="st15" width="25.4" height="16.7"/>
	<rect x="424.8" y="208.5" class="st16" width="25.4" height="2.1"/>
	<rect x="424.8" y="210.5" class="st17" width="25.4" height="42.3"/>
	<rect x="462.9" y="77.2" class="st14" width="25.4" height="114.5"/>
	<rect x="462.9" y="191.7" class="st15" width="25.4" height="19.6"/>
	<rect x="462.9" y="211.3" class="st16" width="25.4" height="0.9"/>
	<rect x="462.9" y="212.2" class="st17" width="25.4" height="70.9"/>
	<rect x="501" y="95.4" class="st14" width="25.4" height="96.3"/>
	<rect x="501" y="191.7" class="st15" width="25.4" height="16.3"/>
	<rect x="501" y="208" class="st16" width="25.4" height="13"/>
	<rect x="501" y="221" class="st17" width="25.4" height="80.3"/>
	<rect x="539.1" y="136.6" class="st14" width="25.4" height="55.1"/>
	<rect x="539.1" y="191.7" class="st15" width="25.4" height="16.8"/>
	<rect x="539.1" y="208.5" class="st16" width="25.4" height="24.7"/>
	<rect x="539.1" y="233.2" class="st17" width="25.4" height="109.3"/>
	<rect x="577.3" y="158.3" class="st14" width="25.4" height="33.4"/>
	<rect x="577.3" y="191.7" class="st15" width="25.4" height="49.3"/>
	<rect x="577.3" y="241" class="st16" width="25.4" height="24.3"/>
	<rect x="577.3" y="265.4" class="st17" width="25.4" height="98.8"/>
	<rect x="615.4" y="164.8" class="st14" width="25.4" height="27"/>
	<rect x="615.4" y="191.7" class="st15" width="25.4" height="105.7"/>
	<rect x="615.4" y="297.4" class="st17" width="25.4" height="73.2"/>
	<rect x="653.5" y="177.8" class="st14" width="25.4" height="13.9"/>
	<rect x="653.5" y="191.7" class="st15" width="25.4" height="14.3"/>
	<rect x="653.5" y="206" class="st16" width="25.4" height="12.4"/>
	<rect x="653.5" y="218.4" class="st17" width="25.4" height="165.3"/>
</g>
<g id="E2" class="st18">
	<line class="st19" x1="61.1" y1="294.7" x2="55.5" y2="294.7"/>
	<line class="st19" x1="61.1" y1="191.7" x2="55.5" y2="191.7"/>
	<line class="st19" x1="61.1" y1="88.8" x2="55.5" y2="88.8"/>
	<rect x="44.5" y="187" class="st19" width="5.3" height="11.4"/>
	<line class="st20" x1="61.1" y1="191.7" x2="335.6" y2="191.7"/>
	<rect x="71.3" y="94.6" class="st21" width="25.4" height="97.1"/>
	<rect x="71.3" y="191.7" class="st22" width="25.4" height="22.1"/>
	<rect x="71.3" y="213.8" class="st23" width="25.4" height="1.7"/>
	<rect x="71.3" y="215.6" class="st24" width="25.4" height="85"/>
	<rect x="109.4" y="181.8" class="st21" width="25.4" height="9.9"/>
	<rect x="109.4" y="191.7" class="st22" width="25.4" height="37.5"/>
	<rect x="109.4" y="229.2" class="st23" width="25.4" height="28.4"/>
	<rect x="109.4" y="257.6" class="st24" width="25.4" height="130.1"/>
	<rect x="147.6" y="185.7" class="st21" width="25.4" height="6"/>
	<rect x="147.6" y="191.7" class="st22" width="25.4" height="4.2"/>
	<rect x="147.6" y="195.9" class="st23" width="25.4" height="37.3"/>
	<rect x="147.6" y="233.2" class="st24" width="25.4" height="158.4"/>
	<rect x="185.7" y="186.2" class="st21" width="25.4" height="5.5"/>
	<rect x="185.7" y="191.7" class="st22" width="25.4" height="115.8"/>
	<rect x="185.7" y="307.6" class="st24" width="25.4" height="84.5"/>
	<rect x="223.8" y="187.5" class="st21" width="25.4" height="4.3"/>
	<rect x="223.8" y="191.7" class="st22" width="25.4" height="62"/>
	<rect x="223.8" y="253.7" class="st23" width="25.4" height="9.3"/>
	<rect x="223.8" y="263.1" class="st24" width="25.4" height="130.3"/>
	<rect x="261.9" y="188.4" class="st21" width="25.4" height="3.4"/>
	<rect x="261.9" y="191.7" class="st22" width="25.4" height="68.2"/>
	<rect x="261.9" y="259.9" class="st23" width="25.4" height="63.1"/>
	<rect x="261.9" y="323.1" class="st24" width="25.4" height="71.2"/>
	<rect x="300.1" y="191" class="st21" width="25.4" height="0.8"/>
	<rect x="300.1" y="191.7" class="st22" width="25.4" height="63"/>
	<rect x="300.1" y="254.8" class="st23" width="25.4" height="3.9"/>
	<rect x="300.1" y="258.6" class="st24" width="25.4" height="138.2"/>
</g>
<line class="st13" x1="61.1" y1="191.7" x2="335.6" y2="191.7"/>
<rect x="71.3" y="94.6" class="st14" width="25.4" height="97.1"/>
<rect x="71.3" y="191.7" class="st15" width="25.4" height="22.1"/>
<rect x="71.3" y="213.8" class="st16" width="25.4" height="1.7"/>
<rect x="71.3" y="215.5" class="st17" width="25.4" height="85"/>
<rect x="109.4" y="181.8" class="st14" width="25.4" height="9.9"/>
<rect x="109.4" y="191.7" class="st15" width="25.4" height="37.5"/>
<rect x="109.4" y="229.2" class="st16" width="25.4" height="28.4"/>
<rect x="109.4" y="257.5" class="st17" width="25.4" height="130.1"/>
<rect x="147.5" y="185.7" class="st14" width="25.4" height="6"/>
<rect x="147.5" y="191.7" class="st15" width="25.4" height="4.2"/>
<rect x="147.5" y="195.9" class="st16" width="25.4" height="37.3"/>
<rect x="147.5" y="233.1" class="st17" width="25.4" height="158.4"/>
<rect x="185.6" y="186.2" class="st14" width="25.4" height="5.5"/>
<rect x="185.6" y="191.7" class="st15" width="25.4" height="115.8"/>
<rect x="185.6" y="307.5" class="st17" width="25.4" height="84.5"/>
<rect x="223.8" y="188.3" class="st14" width="25.4" height="3.4"/>
<rect x="223.8" y="191.7" class="st15" width="25.4" height="68.2"/>
<rect x="223.8" y="259.9" class="st16" width="25.4" height="63.1"/>
<rect x="223.8" y="323" class="st17" width="25.4" height="71.2"/>
<rect x="261.9" y="189.2" class="st14" width="25.4" height="2.5"/>
<rect x="261.9" y="191.7" class="st15" width="25.4" height="54.9"/>
<rect x="261.9" y="246.6" class="st16" width="25.4" height="9.4"/>
<rect x="261.9" y="256" class="st17" width="25.4" height="139"/>
<rect x="300" y="190.9" class="st14" width="25.4" height="0.8"/>
<rect x="300" y="191.7" class="st15" width="25.4" height="63.8"/>
<rect x="300" y="255.5" class="st16" width="25.4" height="3.6"/>
<rect x="300" y="259.1" class="st17" width="25.4" height="137.7"/>
</svg>
